<?xml version="1.0" encoding="UTF-8"?>
<svg width="30px" height="30px" viewBox="0 0 30 30" version="1.1" xmlns="http://www.w3.org/2000/svg" xmlns:xlink="http://www.w3.org/1999/xlink">
    <title>icon/30/分享海报</title>
    <g id="控件" stroke="none" stroke-width="1" fill="none" fill-rule="evenodd">
        <g id="icon/30/分享海报" fill="#444444">
            <g>
                <rect id="占位" opacity="0" x="0" y="0" width="30" height="30"></rect>
                <path d="M24.619886,21.2151869 L24.7071068,21.2928932 L27.5355339,24.1213203 C27.8981636,24.48395 27.9240657,25.0557954 27.6132403,25.4483131 L27.5355339,25.5355339 L24.7071068,28.363961 C24.3165825,28.7544853 23.6834175,28.7544853 23.2928932,28.363961 C22.9302635,28.0013313 22.9043614,27.4294859 23.2151869,27.0369683 L23.2928932,26.9497475 L24.242,25.999 L19,26 C18.4477153,26 18,25.5522847 18,25 C18,24.5237953 18.3328612,24.1253345 18.8719834,24.0192045 L19,24 L24.585,23.999 L23.2928932,22.7071068 C22.9302635,22.3444771 22.9043614,21.7726317 23.2151869,21.380114 L23.2928932,21.2928932 C23.6555229,20.9302635 24.2273683,20.9043614 24.619886,21.2151869 Z M22,3 C24.6887547,3 26.8818181,5.12230671 26.9953805,7.78311038 L27,8 L27,19 C27,19.5522847 26.5522847,20 26,20 C25.4871642,20 25.0644928,19.6139598 25.0067277,19.1166211 L25,19 L25,16.392 L20.5093403,12.5279442 L16.816,15.689 L19.6689647,18.2567059 C20.0794748,18.6261649 20.1127532,19.2584547 19.7432941,19.6689647 C19.4022551,20.0478971 18.8372654,20.1054013 18.4294847,19.8214163 L18.3310353,19.7432941 L8.961,11.31 L5,14.479 L5,22 C5,23.5976809 6.24891996,24.9036609 7.82372721,24.9949073 L8,25 L16,25 C16.5522847,25 17,25.4477153 17,26 C17,26.5128358 16.6139598,26.9355072 16.1166211,26.9932723 L16,27 L8,27 C5.3112453,27 3.11818189,24.8776933 3.00461951,22.2168896 L3,22 L3,8 C3,5.3112453 5.12230671,3.11818189 7.78311038,3.00461951 L8,3 L22,3 Z M22,5 L8,5 C6.40231912,5 5.09633912,6.24891996 5.00509269,7.82372721 L5,8 L5,11.919 L8.37530495,9.21913119 C8.7257309,8.93879043 9.21497604,8.92879076 9.57436962,9.18132857 L9.66896473,9.25670585 L15.317,14.34 L19.2086794,11.0086413 C19.9146639,10.4042547 20.936347,10.3699268 21.6781331,10.9049138 L21.8137925,11.0118953 L25,13.753 L25,8 C25,6.40231912 23.75108,5.09633912 22.1762728,5.00509269 L22,5 Z M18.5,7 C19.3284271,7 20,7.67157288 20,8.5 C20,9.32842712 19.3284271,10 18.5,10 C17.6715729,10 17,9.32842712 17,8.5 C17,7.67157288 17.6715729,7 18.5,7 Z" id="形状结合"></path>
            </g>
        </g>
    </g>
</svg>